<?xml version="1.0" encoding="utf-8" ?><svg xmlns="http://www.w3.org/2000/svg" xmlns:xlink="http://www.w3.org/1999/xlink" width="184" height="69" viewBox="0 0 184 69"><path fill="#FFFFFF" d="M110.577 39.0444C117.644 37.7785 124.409 42.4482 125.732 49.5049C127.055 56.5616 122.44 63.3647 115.394 64.7443C108.268 66.1396 101.369 61.4601 100.032 54.3226C98.6936 47.1851 103.429 40.3248 110.577 39.0444ZM114.196 60.2197C123.833 57.5963 121.969 42.6628 111.584 43.5707C109.485 44.1516 107.337 45.1204 106.406 47.2048C103.421 53.887 106.434 60.7027 114.196 60.2197Z"/><path fill="#FFFFFF" d="M144.493 8.0271C151.561 6.82113 158.281 11.5364 159.552 18.5935C160.822 25.6507 156.168 32.4134 149.123 33.7482C141.986 35.1003 135.116 30.3729 133.829 23.224C132.542 16.0751 137.332 9.24873 144.493 8.0271ZM148.464 28.9786C157.341 26.2669 156.068 11.2245 144.806 12.5693C135.678 15.7772 137.619 30.6022 148.464 28.9786Z"/><path fill="#FFFFFF" d="M115.638 8.04001C122.703 6.77304 129.464 11.4516 130.769 18.5099C132.073 25.5681 127.43 32.3541 120.379 33.6958C113.275 35.0476 106.427 30.3624 105.112 23.2511C103.798 16.1398 108.52 9.31651 115.638 8.04001ZM119.653 29.0098C129.063 26.271 127.07 11.0547 116.329 12.5461C106.904 15.5059 109.214 30.6859 119.653 29.0098Z"/><path fill="#FFFFFF" d="M169.01 38.8323C173.478 38.6039 177.858 40.7313 179.92 44.7745C181.438 47.7512 181.5 50.1682 181.688 53.4058C175.975 53.1262 168.188 53.2937 162.427 53.3678C163.061 55.4785 163.292 56.5866 164.863 58.2249C166.145 59.5835 167.916 60.3762 169.784 60.4279C173.727 60.5026 174.686 58.1556 176.835 56.0855C178.241 56.7771 179.63 57.5015 181.002 58.2582C178.708 61.9208 176.51 64.0139 171.946 64.7103C159.257 66.6464 153.452 52.7469 159.91 43.2998C161.973 40.2823 165.459 39.2706 169.01 38.8323ZM162.539 49.2843L171.812 49.2885L176.356 49.2251C175.01 44.3518 172.681 43.1964 167.819 43.5427C164.49 44.6488 163.782 46.1009 162.539 49.2843Z"/><path fill="#FFFFFF" d="M141.159 39.3246C141.385 39.2961 141.611 39.2726 141.838 39.2542C156.998 38.0295 152.668 54.7126 153.413 64.3602C151.526 64.2446 149.982 64.246 148.107 64.4565C148.119 62.4773 148.21 60.4135 148.14 58.4428C147.903 51.8126 150.107 41.6124 139.705 43.9935C133.563 46.6304 135.082 58.5256 135.382 64.3522C133.471 64.2557 131.877 64.2378 129.977 64.4407L129.933 39.451C131.58 39.5364 133.382 39.4857 135.041 39.4731C135 40.6607 134.787 41.9153 135.513 42.7838C136.965 42.4709 137.697 40.0614 141.159 39.3246Z"/><path fill="#FFFFFF" d="M28.6612 43.1306C31.0215 42.9949 33.9119 43.0186 36.3157 42.9716C29.2532 49.911 22.2268 56.8872 15.237 63.8998L13.0234 61.6565C10.3156 58.895 7.65316 56.1355 4.80848 53.5138C4.96418 53.3142 5.12916 53.122 5.30286 52.9378C11.0319 46.8512 20.3955 43.3789 28.6612 43.1306Z"/><path fill="#FFFFFF" d="M39.7239 27.0675C48.7739 27.3757 59.6029 27.3264 68.6572 27.207C68.6526 30.6267 68.2894 38.9397 68.6983 41.912C68.5855 41.9459 68.4712 41.9741 68.3556 41.9965C67.9027 42.0842 66.0815 41.93 65.5563 41.89C59.5144 41.3786 53.7058 39.3212 48.6891 35.9157C47.0419 34.8164 39.7852 28.7346 39.7239 27.0675Z"/><path fill="#FFFFFF" d="M15.475 5.15614C15.5683 5.18938 15.6925 5.24237 15.766 5.30768C21.2159 10.1451 24.7559 18.5831 25.4983 25.7136C25.8572 29.1616 25.7785 32.7134 25.9655 36.1782C23.9815 34.3996 22.5078 33.08 20.7198 31.0746C15.657 26.4758 10.1187 19.79 5.06712 15.5452C8.14233 11.8964 11.9734 8.39804 15.475 5.15614Z"/><path fill="#FFFFFF" d="M53.3738 5.4524C54.8431 6.15893 61.8507 13.814 63.9533 15.7294C57.5772 21.6167 51.5813 24.5708 42.9702 25.6598C41.3959 26.0096 34.8648 25.7913 32.6409 25.8757C39.4852 19.5061 46.2122 11.6959 53.3738 5.4524Z"/><path fill="#FFFFFF" d="M43.1365 33.0914C43.4682 33.2037 62.3025 52.1955 63.2834 53.5579C63.1973 54.6369 59.5081 57.8536 58.5246 58.7846C56.7817 60.4173 54.8451 62.4666 53.1374 64.1824C45.3382 56.2333 41.5919 44.0794 43.1365 33.0914Z"/><path fill="#FFFFFF" d="M89.6281 8.08979C96.7152 7.85369 100.56 10.9419 102.756 17.5538C101.011 17.7673 99.2272 18.2757 97.5201 18.7158C96.382 14.8292 94.5522 12.4269 90.0449 12.7307C88.1738 12.8475 86.4298 13.7172 85.2107 15.1415C80.0495 21.1257 84.9501 32.2429 93.7095 28.8272C94.8116 28.3974 95.4715 27.6996 96.2199 26.8217C97.044 25.5648 97.3381 24.757 97.8817 23.3855C99.4448 23.7591 101.212 24.0869 102.8 24.4169C101.096 29.926 98.2983 33.1099 92.3585 33.7371C84.8754 34.5272 78.7877 30.4934 77.9916 22.7386C77.3735 16.7186 79.7066 10.9312 85.7784 8.7987C87.1075 8.3319 88.2485 8.22477 89.6281 8.08979Z"/><path fill="#FFFFFF" d="M80.8044 39.6338C86.5046 39.4333 92.4795 39.6565 98.2784 39.5089C98.3263 42.482 98.3202 45.4557 98.2602 48.4286C93.5999 51.4236 82.7757 57.3449 77.776 59.8265C83.4331 60.1624 92.3669 59.8214 98.426 59.8308C98.2824 61.3498 98.3034 63.0029 98.2903 64.5369C97.081 64.3646 95.53 64.3569 94.2848 64.3162C88.9911 64.3188 82.8162 64.181 77.5974 64.5029C77.5995 61.6084 77.5375 58.4264 77.7128 55.5591C80.0379 54.037 83.5843 52.1676 86.065 50.7825C90.1145 48.4688 94.2074 46.2319 98.3414 44.0728C91.9768 44.3673 84.1714 44.1254 77.6452 44.1806C77.6528 42.662 77.635 41.1435 77.5919 39.6255C78.6627 39.6378 79.7336 39.6406 80.8044 39.6338Z"/><path fill="#FFFFFF" d="M164.953 1.12368L168.78 1.03278C168.892 10.1621 168.959 23.2491 168.823 32.7661C168.696 32.9373 168.588 33.083 168.499 33.203L167.813 33.2154L163.593 33.2573C163.568 25.615 163.356 9.95983 163.787 1.6663C163.803 1.35619 164.559 1.23178 164.953 1.12368Z"/><path fill="#FFFFFF" d="M174.828 24.775C175.346 24.7807 176.966 24.7707 177.362 24.9709C181.752 27.1889 181.13 31.0297 177.246 32.9973C174.549 33.0838 174.554 33.2055 172.324 31.6073C172.067 30.929 171.73 29.5388 171.525 28.7894C172.262 26.395 172.449 25.7583 174.828 24.775ZM176.344 32.1766C176.422 32.1618 176.499 32.1443 176.576 32.1242C179.5 31.365 179.607 29.491 178.921 26.991C174.656 21.8121 168.538 31.5459 176.344 32.1766Z"/><path fill="#FFFFFF" d="M176.344 32.1766C168.538 31.5459 174.656 21.8121 178.921 26.991C178.296 27.6204 177.393 28.3614 177.3 29.2031C177.473 29.7278 177.612 30.1818 177.751 30.7167L177.516 31.0362L176.774 30.9449C176.431 31.2729 176.417 31.7067 176.344 32.1766Z"/><path fill="#FFFFFF" d="M27.1936 69C25.9254 66.1599 28.1387 59.0265 29.1574 56.0591C31.196 50.1212 36.8812 43.0323 41.9212 39.3081C41.6563 44.0159 42.2508 66.2087 41.3069 69L27.1936 69Z"/><path fill="#FFFFFF" d="M0 27.1596C6.03322 26.2441 16.2604 29.9742 20.9518 33.7876C22.2014 34.8033 28.9225 40.4929 29.1146 41.6967C28.5709 42.0813 2.89617 41.6503 0 41.4771L0 27.1596Z"/><path fill="#FFFFFF" d="M27.423 0L30.2059 0C33.0048 0.593742 39.2056 0.738171 41.9017 0.0719391C41.7666 8.99467 39.2347 16.5351 33.2977 23.3229C31.2914 25.6167 29.1513 27.5049 27.1448 29.8371C26.9236 23.18 27.0927 16.477 27.1224 9.80955C27.1315 7.78786 27.051 1.63561 27.423 0Z"/></svg>